<svg xmlns:xlink="http://www.w3.org/1999/xlink" role="none" aria-hidden="true" xmlns="http://www.w3.org/2000/svg" width="24" height="24" viewBox="0 0 24 24" data-supported-dps="24x24" data-test-icon="job-medium"><defs><svg xmlns="http://www.w3.org/2000/svg" viewBox="0 0 24 24" id="job-medium" aria-hidden="true" role="none" data-supported-dps="24x24" fill="#000000" fill-opacity="0.9">
  <path d="M17 6V5a3 3 0 00-3-3h-4a3 3 0 00-3 3v1H2v4a3 3 0 003 3h14a3 3 0 003-3V6zM9 5a1 1 0 011-1h4a1 1 0 011 1v1H9zm10 9a4 4 0 003-1.38V17a3 3 0 01-3 3H5a3 3 0 01-3-3v-4.38A4 4 0 005 14z" fill-opacity="0.9"></path>
</svg></defs>
<!---->    

    <use href="#job-medium" width="24" height="24" stroke-opacity="0" stroke="#000000" fill-opacity="0" fill="#000000"></use>
</svg>