<svg xmlns:xlink="http://www.w3.org/1999/xlink" role="none" aria-hidden="true" xmlns="http://www.w3.org/2000/svg" width="24" height="24" viewBox="0 0 24 24" data-supported-dps="24x24" data-test-icon="tag-person-medium"><defs><svg xmlns="http://www.w3.org/2000/svg" viewBox="0 0 24 24" id="tag-person-medium" aria-hidden="true" role="none" data-supported-dps="24x24" fill="#000000" fill-opacity="0.9">
  <path d="M18 3h-3l-3-3-3 3H6a3 3 0 00-3 3v12a3 3 0 003 3h12a3 3 0 003-3V6a3 3 0 00-3-3zm-3 16H9v-2a2 2 0 012-2h2a2 2 0 012 2zm-3-6a3 3 0 113-3 3 3 0 01-3 3z" fill-opacity="0.9"></path>
</svg></defs>
<!---->    

    <use href="#tag-person-medium" width="24" height="24" stroke-opacity="0" stroke="#000000" fill-opacity="0" fill="#000000"></use>
</svg>