<svg xmlns:xlink="http://www.w3.org/1999/xlink" xmlns="http://www.w3.org/2000/svg" viewBox="0 0 24 24" id="link-medium" aria-hidden="true" role="none" data-supported-dps="24x24" fill="#000000" fill-opacity="0.9" width="24"  height="24" >
  <path d="M13.32 15.85c-1.05 0-2.11-.4-2.91-1.19l-.54-.54a.996.996 0 111.41-1.41l.53.54c.83.82 2.17.82 3 0l4.32-4.28c.55-.55.86-1.28.86-2.06s-.3-1.51-.86-2.06a2.873 2.873 0 00-4.03 0l-1.62 1.61a.996.996 0 11-1.41-1.41l1.62-1.61c1.88-1.88 4.96-1.88 6.85 0 .93.93 1.45 2.16 1.45 3.48s-.51 2.56-1.45 3.48l-4.32 4.28c-.8.8-1.85 1.19-2.91 1.19zM10.3 20.6l1.62-1.61a.996.996 0 10-1.41-1.41l-1.62 1.61a2.855 2.855 0 01-4.03 0c-.55-.55-.86-1.28-.86-2.06s.3-1.51.86-2.06l4.32-4.28c.83-.82 2.17-.82 3 0l.53.53a.996.996 0 101.41-1.41l-.54-.54c-1.6-1.59-4.21-1.59-5.82 0l-4.31 4.26C2.52 14.56 2 15.79 2 17.11c0 1.32.51 2.56 1.45 3.48.94.94 2.18 1.4 3.42 1.4s2.48-.47 3.43-1.41z" fill-opacity="0.9"></path>
</svg>