<svg xmlns:xlink="http://www.w3.org/1999/xlink" role="none" xmlns="http://www.w3.org/2000/svg" id="hue-web-icons-sprite" style="display: none;" width="24"  height="24" >
    <svg xmlns="http://www.w3.org/2000/svg" viewBox="0 0 24 24" id="close-medium" aria-hidden="true" role="none" data-supported-dps="24x24" fill="#000000" fill-opacity="0.9">
  <path d="M13.42 12L20 18.58 18.58 20 12 13.42 5.42 20 4 18.58 10.58 12 4 5.42 5.42 4 12 10.58 18.58 4 20 5.42z" fill-opacity="0.9"></path>
</svg>

    <svg xmlns="http://www.w3.org/2000/svg" viewBox="0 0 16 16" id="search-small" aria-hidden="true" role="none" data-supported-dps="16x16" fill="#000000" fill-opacity="0.9">
  <path d="M14.56 12.44L11.3 9.18a5.51 5.51 0 10-2.12 2.12l3.26 3.26a1.5 1.5 0 102.12-2.12zM3 6.5A3.5 3.5 0 116.5 10 3.5 3.5 0 013 6.5z" fill-opacity="0.9"></path>
</svg>

    <svg xmlns="http://www.w3.org/2000/svg" viewBox="0 0 24 24" id="search-medium" aria-hidden="true" role="none" data-supported-dps="24x24" fill="#000000" fill-opacity="0.9">
  <path d="M21.41 18.59l-5.27-5.28A6.83 6.83 0 0017 10a7 7 0 10-7 7 6.83 6.83 0 003.31-.86l5.28 5.27a2 2 0 002.82-2.82zM5 10a5 5 0 115 5 5 5 0 01-5-5z" fill-opacity="0.9"></path>
</svg>

    <svg xmlns="http://www.w3.org/2000/svg" viewBox="0 0 16 16" id="caret-small" aria-hidden="true" role="none" data-supported-dps="16x16" fill="#000000" fill-opacity="0.9">
  <path d="M8 11L3 6h10z" fill-rule="evenodd" fill-opacity="0.9"></path>
</svg>

    <svg xmlns="http://www.w3.org/2000/svg" viewBox="0 0 24 24" id="overflow-web-ios-medium" aria-hidden="true" role="none" data-supported-dps="24x24" fill="#000000" fill-opacity="0.9">
  <path d="M14 12a2 2 0 11-2-2 2 2 0 012 2zM4 10a2 2 0 102 2 2 2 0 00-2-2zm16 0a2 2 0 102 2 2 2 0 00-2-2z" fill-opacity="0.9"></path>
</svg>

    <svg xmlns="http://www.w3.org/2000/svg" viewBox="0 0 16 16" id="camera-small" aria-hidden="true" role="none" data-supported-dps="16x16" fill="#000000" fill-opacity="0.9">
  <path d="M10 9a2 2 0 11-2-2 2 2 0 012 2zm5-2.5V14H1V6.5A2.5 2.5 0 013.5 4h.75L5 2h6l.75 2h.75A2.5 2.5 0 0115 6.5zM11 9a3 3 0 10-3 3 3 3 0 003-3z" fill-opacity="0.9"></path>
</svg>

    <svg xmlns="http://www.w3.org/2000/svg" viewBox="0 0 16 16" id="edit-small" aria-hidden="true" role="none" data-supported-dps="16x16" fill="#000000" fill-opacity="0.9">
  <path d="M14.13 1.86a3 3 0 00-4.17 0l-7 7L1 15l6.19-2 6.94-7a3 3 0 000-4.16zm-8.36 9.71l-1.35-1.34L9.64 5 11 6.35z" fill-opacity="0.9"></path>
</svg>

    <svg xmlns="http://www.w3.org/2000/svg" viewBox="0 0 24 24" id="edit-medium" aria-hidden="true" role="none" data-supported-dps="24x24" fill="#000000" fill-opacity="0.9">
  <path d="M21.13 2.86a3 3 0 00-4.17 0l-13 13L2 22l6.19-2L21.13 7a3 3 0 000-4.16zM6.77 18.57l-1.35-1.34L16.64 6 18 7.35z" fill-opacity="0.9"></path>
</svg>

    <svg xmlns="http://www.w3.org/2000/svg" viewBox="0 0 16 16" id="overflow-web-ios-small" aria-hidden="true" role="none" data-supported-dps="16x16" fill="#000000" fill-opacity="0.9">
  <path d="M3 9.5A1.5 1.5 0 114.5 8 1.5 1.5 0 013 9.5zM11.5 8A1.5 1.5 0 1013 6.5 1.5 1.5 0 0011.5 8zm-5 0A1.5 1.5 0 108 6.5 1.5 1.5 0 006.5 8z" fill-opacity="0.9"></path>
</svg>

    <svg xmlns="http://www.w3.org/2000/svg" viewBox="0 0 16 16" id="compose-small" aria-hidden="true" role="none" data-supported-dps="16x16" fill="#000000" fill-opacity="0.9">
  <path d="M15 2.53a1.51 1.51 0 01-.44 1L9.15 9 6 10l1-3.12 5.44-5.44A1.5 1.5 0 0115 2.53zM12 11a1 1 0 01-1 1H5a1 1 0 01-1-1V5a1 1 0 011-1h3V2H5a3 3 0 00-3 3v6a3 3 0 003 3h6a3 3 0 003-3V8h-2z" fill-opacity="0.9"></path>
</svg>

    <svg xmlns="http://www.w3.org/2000/svg" viewBox="0 0 16 16" id="chevron-up-small" aria-hidden="true" role="none" data-supported-dps="16x16" fill="#000000" fill-opacity="0.9">
  <path d="M15 11L8 6.39 1 11V8.61L8 4l7 4.61z" fill-opacity="0.9"></path>
</svg>

    <svg xmlns="http://www.w3.org/2000/svg" viewBox="0 0 16 16" class="rtl-flip" id="chevron-right-small" aria-hidden="true" role="none" data-supported-dps="16x16" fill="#000000" fill-opacity="0.9">
  <path d="M5 15l4.61-7L5 1h2.39L12 8l-4.61 7z" fill-opacity="0.9"></path>
</svg>

    <svg xmlns="http://www.w3.org/2000/svg" viewBox="0 0 16 16" id="close-small" aria-hidden="true" role="none" data-supported-dps="16x16" fill="#000000" fill-opacity="0.9">
  <path d="M14 3.41L9.41 8 14 12.59 12.59 14 8 9.41 3.41 14 2 12.59 6.59 8 2 3.41 3.41 2 8 6.59 12.59 2z" fill-opacity="0.9"></path>
</svg>

    <svg xmlns="http://www.w3.org/2000/svg" viewBox="0 0 24 24" class="rtl-flip" id="share-linkedin-medium" aria-hidden="true" role="none" data-supported-dps="24x24" fill="#000000" fill-opacity="0.9">
  <path d="M23 12l-4.61 7H16l4-6H8a3.92 3.92 0 00-4 3.84V17a4 4 0 00.19 1.24L5.12 21H3l-.73-2.22A6.4 6.4 0 012 16.94 6 6 0 018 11h12l-4-6h2.39z" fill-opacity="0.9"></path>
</svg>

    <svg xmlns="http://www.w3.org/2000/svg" viewBox="0 0 24 24" id="download-medium" aria-hidden="true" role="none" data-supported-dps="24x24" fill="#000000" fill-opacity="0.9">
  <path d="M21 14v5a3 3 0 01-3 3H6a3 3 0 01-3-3v-5h2v5a1 1 0 001 1h12a1 1 0 001-1v-5zm-4-.57V11l-4 2.85V3h-2v10.85L7 11v2.43L12 17z" fill-opacity="0.9"></path>
</svg>

    <svg xmlns="http://www.w3.org/2000/svg" viewBox="0 0 24 24" id="signal-notice-medium" aria-hidden="true" role="none" data-supported-dps="24x24" fill="#000000" fill-opacity="0.9">
  <path d="M18 3H6a3 3 0 00-3 3v12a3 3 0 003 3h12a3 3 0 003-3V6a3 3 0 00-3-3zm-4 15h-1a3 3 0 01-3-3 3.22 3.22 0 01.1-.75L11.2 10h2.07L12 14.75A1 1 0 0013 16h1zm-1-9.75A1.25 1.25 0 1114.25 7 1.25 1.25 0 0113 8.25z" fill-opacity="0.9"></path>
</svg>

    <svg xmlns="http://www.w3.org/2000/svg" viewBox="0 0 16 16" class="rtl-flip" id="arrow-right-small" aria-hidden="true" role="none" data-supported-dps="16x16" fill="#000000" fill-opacity="0.9">
  <path d="M11.45 3L15 8l-3.55 5H9l2.84-4H2V7h9.84L9 3z" fill-opacity="0.9"></path>
</svg>

    <svg xmlns="http://www.w3.org/2000/svg" viewBox="0 0 16 16" id="check-small" aria-hidden="true" role="none" data-supported-dps="16x16" fill="#000000" fill-opacity="0.9">
  <path d="M12.57 2H15L6 15l-5-5 1.41-1.41 3.31 3.3z" fill-opacity="0.9"></path>
</svg>

    <svg xmlns="http://www.w3.org/2000/svg" viewBox="0 0 16 16" class="rtl-flip" id="chevron-left-small" aria-hidden="true" role="none" data-supported-dps="16x16" fill="#000000" fill-opacity="0.9">
  <path d="M11 1L6.39 8 11 15H8.61L4 8l4.61-7z" fill-opacity="0.9"></path>
</svg>

    <svg xmlns="http://www.w3.org/2000/svg" viewBox="0 0 24 24" id="add-medium" aria-hidden="true" role="none" data-supported-dps="24x24" fill="#000000" fill-opacity="0.9">
  <path d="M21 13h-8v8h-2v-8H3v-2h8V3h2v8h8z" fill-opacity="0.9"></path>
</svg>

    <svg xmlns="http://www.w3.org/2000/svg" viewBox="0 0 16 16" id="connect-small" aria-hidden="true" role="none" data-supported-dps="16x16" fill="#000000" fill-opacity="0.9">
  <path d="M9 4a3 3 0 11-3-3 3 3 0 013 3zM6.75 8h-1.5A2.25 2.25 0 003 10.25V15h6v-4.75A2.25 2.25 0 006.75 8zM13 8V6h-1v2h-2v1h2v2h1V9h2V8z" fill-opacity="0.9"></path>
</svg>

    <svg xmlns="http://www.w3.org/2000/svg" viewBox="0 0 16 16" id="add-small" aria-hidden="true" role="none" data-supported-dps="16x16" fill="#000000" fill-opacity="0.9">
  <path d="M14 9H9v5H7V9H2V7h5V2h2v5h5z" fill-opacity="0.9"></path>
</svg>

    <svg xmlns="http://www.w3.org/2000/svg" viewBox="0 0 24 24" class="rtl-flip" id="question-medium" aria-hidden="true" role="none" data-supported-dps="24x24" fill="#000000" fill-opacity="0.9">
  <path d="M12 2a10 10 0 1010 10A10 10 0 0012 2zm0 16.25A1.25 1.25 0 1113.25 17 1.25 1.25 0 0112 18.25zm1.41-5.46L13 13v1h-2v-2.21l1.49-.79C13.82 10.34 14 9.77 14 9.3c0-.78-.92-1.3-2.3-1.3A7.12 7.12 0 008 9.24V7a8 8 0 013.7-1c3 0 4.3 1.55 4.3 3.3a3.91 3.91 0 01-2.59 3.49z" fill-opacity="0.9"></path>
</svg>

    <svg xmlns="http://www.w3.org/2000/svg" viewBox="0 0 24 24" id="settings-medium" aria-hidden="true" role="none" data-supported-dps="24x24" fill="#000000" fill-opacity="0.9">
  <path d="M9.18 2l-4.3 2.52L6.22 8l-.52.91-3.7.55v5l3.64.54.54.93-1.34 3.53L9.14 22l2.29-2.9h1.09l2.3 2.9 4.32-2.52L17.79 16l.53-.93 3.68-.53v-5L18.32 9l-.51-.9 1.36-3.51L14.86 2l-2.33 3h-1zM12 9a3 3 0 11-3 3 3 3 0 013-3z" fill-opacity="0.9"></path>
</svg>

    <svg xmlns="http://www.w3.org/2000/svg" viewBox="0 0 24 24" id="shield-medium" aria-hidden="true" role="none" data-supported-dps="24x24" fill="#000000" fill-opacity="0.9">
  <path d="M12 2L3 5v6c0 5 3.12 8.81 7.77 10.56L12 22l1.27-.44C17.9 19.81 21.01 16 21.01 11V5L12 2zm-.53 17.8C7.6 18.35 5.01 15.1 5.01 11V6.44l7-2.32V20l-.54-.2z" fill-opacity="0.9"></path>
</svg>

    <svg xmlns="http://www.w3.org/2000/svg" viewBox="0 0 24 24" id="image-medium" aria-hidden="true" role="none" data-supported-dps="24x24" fill="#000000" fill-opacity="0.9">
  <path d="M19 4H5a3 3 0 00-3 3v10a3 3 0 003 3h14a3 3 0 003-3V7a3 3 0 00-3-3zm1 13a1 1 0 01-.29.71L16 14l-2 2-6-6-4 4V7a1 1 0 011-1h14a1 1 0 011 1zm-2-7a2 2 0 11-2-2 2 2 0 012 2z" fill-opacity="0.9"></path>
</svg>

    <svg xmlns="http://www.w3.org/2000/svg" viewBox="0 0 24 24" id="calendar-medium" aria-hidden="true" role="none" data-supported-dps="24x24" fill="#000000" fill-opacity="0.9">
  <path d="M3 3v15c0 1.66 1.34 3 3 3h12c1.66 0 3-1.34 3-3V3H3zm13 1.75a1.25 1.25 0 110 2.5 1.25 1.25 0 010-2.5zm-8 0a1.25 1.25 0 110 2.5 1.25 1.25 0 010-2.5zM19 18c0 .55-.45 1-1 1H6c-.55 0-1-.45-1-1V9h14v9zM7 11h2v2H7v-2zm0 4h2v2H7v-2zm4-4h2v2h-2v-2zm0 4h2v2h-2v-2zm4-4h2v2h-2v-2zm0 4h2v2h-2v-2z" fill-opacity="0.9"></path>
</svg>

    <svg xmlns="http://www.w3.org/2000/svg" viewBox="0 0 24 24" id="content-align-left-medium" aria-hidden="true" role="none" data-supported-dps="24x24" fill="#000000" fill-opacity="0.9">
  <path d="M21 3v2H3V3zm-6 6h6V7h-6zm0 4h6v-2h-6zm0 4h6v-2h-6zM3 21h18v-2H3zM13 7H3v10h10z" fill-opacity="0.9"></path>
</svg>

    <svg xmlns="http://www.w3.org/2000/svg" viewBox="0 0 24 24" id="thumbs-up-outline-medium" aria-hidden="true" role="none" data-supported-dps="24x24" fill="#000000" fill-opacity="0.9">
  <path d="M19.46 11l-3.91-3.91a7 7 0 01-1.69-2.74l-.49-1.47A2.76 2.76 0 0010.76 1 2.75 2.75 0 008 3.74v1.12a9.19 9.19 0 00.46 2.85L8.89 9H4.12A2.12 2.12 0 002 11.12a2.16 2.16 0 00.92 1.76A2.11 2.11 0 002 14.62a2.14 2.14 0 001.28 2 2 2 0 00-.28 1 2.12 2.12 0 002 2.12v.14A2.12 2.12 0 007.12 22h7.49a8.08 8.08 0 003.58-.84l.31-.16H21V11zM19 19h-1l-.73.37a6.14 6.14 0 01-2.69.63H7.72a1 1 0 01-1-.72l-.25-.87-.85-.41A1 1 0 015 17l.17-1-.76-.74A1 1 0 014.27 14l.66-1.09-.73-1.1a.49.49 0 01.08-.7.48.48 0 01.34-.11h7.05l-1.31-3.92A7 7 0 0110 4.86V3.75a.77.77 0 01.75-.75.75.75 0 01.71.51L12 5a9 9 0 002.13 3.5l4.5 4.5H19z" fill-opacity="0.9"></path>
</svg>

    <svg xmlns="http://www.w3.org/2000/svg" viewBox="0 0 24 24" id="comment-medium" aria-hidden="true" role="none" data-supported-dps="24x24" fill="#000000" fill-opacity="0.9">
  <path d="M7 9h10v1H7zm0 4h7v-1H7zm16-2a6.78 6.78 0 01-2.84 5.61L12 22v-4H8A7 7 0 018 4h8a7 7 0 017 7zm-2 0a5 5 0 00-5-5H8a5 5 0 000 10h6v2.28L19 15a4.79 4.79 0 002-4z" fill-opacity="0.9"></path>
</svg>

    <svg xmlns="http://www.w3.org/2000/svg" viewBox="0 0 24 24" id="repost-medium" aria-hidden="true" role="none" data-supported-dps="24x24" fill="#000000" fill-opacity="0.9">
  <path d="M13.96 5H6c-.55 0-1 .45-1 1v10H3V6c0-1.66 1.34-3 3-3h7.96L12 0h2.37L17 4l-2.63 4H12l1.96-3zm5.54 3H19v10c0 .55-.45 1-1 1h-7.96L12 16H9.63L7 20l2.63 4H12l-1.96-3H18c1.66 0 3-1.34 3-3V8h-1.5z" fill-opacity="0.9"></path>
</svg>

    <svg xmlns="http://www.w3.org/2000/svg" viewBox="0 0 24 24" class="rtl-flip" id="send-privately-medium" aria-hidden="true" role="none" data-supported-dps="24x24" fill="#000000" fill-opacity="0.9">
  <path d="M21 3L0 10l7.66 4.26L16 8l-6.26 8.34L14 24l7-21z" fill-opacity="0.9"></path>
</svg>

    <svg xmlns="http://www.w3.org/2000/svg" viewBox="0 0 24 24" id="emoji-medium" aria-hidden="true" role="none" data-supported-dps="24x24" fill="#000000" fill-opacity="0.9">
  <path d="M8 10.5A1.5 1.5 0 119.5 12 1.5 1.5 0 018 10.5zm6.5 1.5a1.5 1.5 0 10-1.5-1.5 1.5 1.5 0 001.5 1.5zm7.5 0A10 10 0 1112 2a10 10 0 0110 10zm-2 0a8 8 0 10-8 8 8 8 0 008-8zm-8 4a6 6 0 01-4.24-1.76l-.71.76a7 7 0 009.89 0l-.71-.71A6 6 0 0112 16z" fill-opacity="0.9"></path>
</svg>

    <svg xmlns="http://www.w3.org/2000/svg" viewBox="0 0 16 16" id="bookmark-fill-small" aria-hidden="true" role="none" data-supported-dps="16x16" fill="#000000" fill-opacity="0.9">
  <path d="M13 4a3 3 0 00-3-3H3v14l5-4.5 5 4.5z" fill-opacity="0.9"></path>
</svg>

    <svg xmlns="http://www.w3.org/2000/svg" viewBox="0 0 16 16" id="signal-notice-small" aria-hidden="true" role="none" data-supported-dps="16x16" fill="#000000" fill-opacity="0.9">
  <path d="M12 2H4a2 2 0 00-2 2v8a2 2 0 002 2h8a2 2 0 002-2V4a2 2 0 00-2-2zm-3 8v2H7.5A1.5 1.5 0 016 10.5a1.56 1.56 0 01.1-.5l1.08-3h2.13l-1.09 3zm0-3.75A1.25 1.25 0 1110.25 5 1.25 1.25 0 019 6.25z" fill-opacity="0.9"></path>
</svg>

    <svg xmlns="http://www.w3.org/2000/svg" viewBox="0 0 16 16" id="chevron-down-small" aria-hidden="true" role="none" data-supported-dps="16x16" fill="#000000" fill-opacity="0.9">
  <path d="M1 5l7 4.61L15 5v2.39L8 12 1 7.39z" fill-opacity="0.9"></path>
</svg>

    <svg xmlns="http://www.w3.org/2000/svg" viewBox="0 0 24 24" id="premium-chip-medium" aria-hidden="true" role="none" data-supported-dps="24x24">
  <path d="M20 20a3.36 3.36 0 001-2.39V6.38A3.38 3.38 0 0017.62 3H6.38A3.36 3.36 0 004 4z" fill="#F8C77E"></path>
  <path d="M4 4a3.36 3.36 0 00-1 2.38v11.24A3.38 3.38 0 006.38 21h11.24A3.36 3.36 0 0020 20z" fill="#E7A33E"></path>
</svg>

</svg>